<svg width="32" height="32" viewBox="0 0 32 32" fill="none" xmlns="http://www.w3.org/2000/svg">
<path d="M9.8044 1.56952C3.1957 4.54343 -0.439081 11.3173 0.717441 18.6695C1.87396 26.3521 10.4653 32.3 18.7261 31.0608C23.187 30.4 28.6392 26.0217 30.5392 21.5608C33.6783 14.3739 30.1261 5.69995 22.6087 1.81734C18.2305 -0.413092 14.2653 -0.495701 9.8044 1.56952ZM22.6087 2.89126C24.0957 3.71734 24.9218 4.70865 24.8392 5.78256C24.7566 7.43473 23.4348 8.17821 23.4348 6.52604C23.4348 6.113 23.0218 5.94778 22.5261 6.27821C21.8653 6.60865 21.9479 7.02169 22.6914 7.51734C23.4348 8.01299 23.5174 8.50865 23.0218 8.83908C22.5261 9.25212 21.6174 10.5739 20.9566 11.813C19.6348 14.4565 20.6261 17.1 22.8566 16.6869C24.5087 16.4391 25.7479 18.6695 26.0783 22.7173C26.3261 25.526 25.9957 26.1043 23.5174 27.8391C19.6348 30.4826 12.4479 30.4826 8.56527 27.9217C3.93918 24.7 2.45222 22.0565 2.12179 15.8608L1.79135 10.326L3.77396 12.4739C6.08701 15.1173 9.63918 16.5217 8.8957 14.5391C8.64788 13.7956 8.06961 13.4652 7.65657 13.713C7.24353 13.9608 6.91309 13.713 6.91309 13.3C6.91309 12.8043 7.57396 12.3913 8.40005 12.3913C9.22614 12.3913 10.7957 11.4826 11.8696 10.326C12.9435 9.16952 14.2653 8.26082 14.9261 8.26082C15.5044 8.26082 16.0001 7.68256 16.0001 7.02169C16.0001 5.61734 14.2653 5.36952 12.9435 6.69126C12.2827 7.35213 11.8696 7.35213 11.4566 6.69126C10.7957 5.61734 14.1827 4.13039 16.0001 4.79126C16.9914 5.12169 17.074 4.95647 16.2479 4.13039C15.4218 3.22169 14.7609 3.22169 13.1087 3.96517C11.7044 4.62604 11.0435 4.62604 11.0435 4.04778C11.0435 3.55213 10.3827 3.38691 9.63918 3.63473C8.40005 4.04778 8.40005 3.96517 9.72179 2.89126C11.8696 1.23908 19.4696 1.23908 22.6087 2.89126ZM28.8044 10.8217C29.7131 11.6478 28.0609 11.813 25.3348 11.0695C24.2609 10.7391 23.6827 10.2434 23.9305 9.74778C24.4261 9.0043 27.4827 9.58256 28.8044 10.8217Z" fill="white"/>
<path d="M9.80446 17.4304C9.47402 18.5043 9.72185 19.6608 10.5479 20.5695C11.2914 21.3956 11.8697 22.9652 11.8697 24.1217C11.8697 25.3608 12.1175 26.8478 12.3653 27.5913C12.9436 29.1608 14.5132 29.4087 14.1827 27.8391C14.0175 27.3434 14.6784 25.6913 15.6697 24.3695C18.3132 20.5695 18.6436 19 16.9914 18.4217C16.2479 18.0913 15.0914 17.3478 14.5132 16.7695C12.861 15.1174 10.3827 15.4478 9.80446 17.4304Z" fill="white"/>
</svg>
